<svg width="41" height="41" viewBox="0 0 41 41" fill="none" xmlns="http://www.w3.org/2000/svg">
<g clip-path="url(#clip0)">
<path d="M7.85704 35.4849C8.06944 35.4849 8.27307 35.4005 8.42322 35.2503L33.468 10.2056C33.68 9.99381 33.9616 9.87714 34.2609 9.87714H40.1992C40.6415 9.87714 41 9.51866 41 9.07635C41 8.63405 40.6415 8.27557 40.1992 8.27557H40.1282C40.6737 7.57458 41 6.69466 41 5.73935C41 3.45775 39.1438 1.60156 36.8622 1.60156H32.6453C32.01 1.60156 31.4125 1.84899 30.9633 2.29818L24.1401 9.1214C24.1401 9.12171 24.1398 9.12171 24.1398 9.12202L24.0553 9.20648C24.0481 9.21336 24.0406 9.21962 24.0334 9.2265V9.19272C24.0334 8.37192 23.6881 7.63088 23.136 7.10537C23.6725 6.5858 24.0065 5.85915 24.0065 5.05524C24.0065 3.48027 22.7253 2.19902 21.1506 2.19902C19.5757 2.19902 18.2944 3.48027 18.2944 5.05524C18.2944 5.85915 18.6288 6.5858 19.1649 7.10537C18.6128 7.63088 18.2675 8.37192 18.2675 9.19272V14.9937L6.14443 27.1171C5.99773 27.2638 5.80254 27.3448 5.59483 27.3448H4.07022C1.82584 27.3448 0 29.1706 0 31.4147C0 32.8708 0.769188 34.1502 1.92188 34.8696V38.5279C1.92188 38.9702 2.28035 39.3287 2.72266 39.3287H9.44922C9.66161 39.3287 9.86525 39.2442 10.0154 39.0941L35.3886 13.7209H40.1992C40.6415 13.7209 41 13.3624 41 12.9201C41 12.4778 40.6415 12.1193 40.1992 12.1193H35.057C34.8446 12.1193 34.641 12.2038 34.4908 12.3539L9.11765 37.7271H3.52344V35.4849H7.85704ZM22.4319 14.8914H20.6351L22.4319 13.0947V14.8914ZM19.8694 16.493H22.4319V18.977L19.8694 21.5395V16.493ZM32.0957 3.43085C32.2427 3.28414 32.4376 3.20312 32.6453 3.20312H36.8622C38.2608 3.20312 39.3984 4.3408 39.3984 5.73935C39.3984 7.1379 38.2605 8.27557 36.8622 8.27557H34.2609C33.5337 8.27557 32.8499 8.55866 32.3356 9.07291L24.0334 17.3754V11.4934L32.0957 3.43085ZM19.896 5.05524C19.896 4.36332 20.4587 3.80058 21.1506 3.80058C21.8422 3.80058 22.405 4.36332 22.405 5.05524C22.405 5.74717 21.8422 6.30991 21.1506 6.30991C20.4587 6.30991 19.896 5.74717 19.896 5.05524ZM19.8694 9.19272C19.8694 8.48609 20.444 7.91147 21.1506 7.91147C21.8569 7.91147 22.4319 8.48609 22.4319 9.19272V9.7151C22.2323 9.68007 22.0368 9.61188 21.8535 9.50896C21.4681 9.29219 20.9798 9.42889 20.7631 9.81426C20.5463 10.2 20.683 10.6882 21.0684 10.905C21.3652 11.0717 21.6799 11.1887 22.0015 11.26L19.8694 13.3924V9.19272ZM4.07022 28.9464H5.59483C6.23045 28.9464 6.82791 28.6989 7.2771 28.2494L18.2675 17.259V23.141L7.52547 33.8834H4.07022C2.70889 33.8834 1.60156 32.776 1.60156 31.4147C1.60156 30.0537 2.70889 28.9464 4.07022 28.9464Z" fill="#68C3BF"/>
<path d="M6.69629 23.1831C6.90118 23.1831 7.10606 23.1049 7.26247 22.9485L12.2508 17.9605C12.5633 17.6477 12.5636 17.1407 12.2508 16.8279C11.938 16.5154 11.4309 16.5154 11.1181 16.8279L6.13011 21.8162C5.81731 22.129 5.81731 22.636 6.13011 22.9488C6.2862 23.1049 6.49109 23.1831 6.69629 23.1831Z" fill="#68C3BF"/>
<path d="M13.8037 16.0761C14.0145 16.0761 14.221 15.9904 14.3699 15.8415C14.5188 15.6916 14.6045 15.4861 14.6045 15.2753C14.6045 15.0638 14.5188 14.8583 14.3699 14.7085C14.221 14.5596 14.0145 14.4739 13.8037 14.4739C13.5932 14.4739 13.3867 14.5596 13.2375 14.7085C13.0886 14.8574 13.0029 15.0638 13.0029 15.2753C13.0029 15.4861 13.0886 15.6916 13.2375 15.8415C13.3867 15.9904 13.5932 16.0761 13.8037 16.0761Z" fill="#68C3BF"/>
</g>
<defs>
<clipPath id="clip0">
<rect width="41" height="41" fill="white"/>
</clipPath>
</defs>
</svg>
