<svg width="62" height="63" viewBox="0 0 62 63" fill="none" xmlns="http://www.w3.org/2000/svg">
<path d="M53.0334 4.07715H8.85755C5.04609 4.07887 1.9568 7.16816 1.95508 10.9796V40.7845C1.9568 44.5964 5.04609 47.6856 8.85755 47.6869H23.1595L28.9299 57.2262C28.9299 57.2404 28.9437 57.2404 28.9437 57.2538C29.3355 57.8746 30.0184 58.2499 30.7522 58.2477C31.4851 58.2464 32.1668 57.872 32.5606 57.2538C32.5606 57.2404 32.5744 57.2404 32.5744 57.2262L38.3449 47.6869H53.0334C56.8448 47.6856 59.9341 44.5964 59.9358 40.7845V10.9796C59.9341 7.16816 56.8448 4.07887 53.0334 4.07715ZM57.1749 40.7845C57.1684 43.0692 55.3177 44.9195 53.0334 44.926H37.558C37.0749 44.9277 36.6253 45.1779 36.3708 45.5886L30.7384 54.9069L25.106 45.5886C24.8536 45.1749 24.4032 44.9238 23.9187 44.926H8.85755C6.57326 44.9195 4.72254 43.0692 4.71607 40.7845V10.9796C4.72254 8.69533 6.57326 6.84461 8.85755 6.83814H53.0334C55.3177 6.84461 57.1684 8.69533 57.1749 10.9796V40.7845Z" fill="white"/>
<path d="M40.3461 18.8902L28.1149 30.5825L21.5713 24.0394C21.0338 23.5019 20.1624 23.5019 19.6248 24.0394C19.0873 24.5765 19.0873 25.448 19.6248 25.9855L27.1209 33.4816C27.3798 33.7426 27.7335 33.8871 28.1011 33.8819C28.4574 33.8858 28.8004 33.7465 29.0536 33.4958L42.265 20.8777C42.8137 20.3483 42.8297 19.4734 42.2995 18.9247C41.7693 18.3755 40.8952 18.36 40.3461 18.8902Z" fill="white"/>
</svg>
