<svg width="34" height="34" viewBox="0 0 34 34" fill="none" xmlns="http://www.w3.org/2000/svg">
<g clip-path="url(#clip0)">
<path d="M32.7686 6.23828L33.208 5.79885C33.4671 5.53946 33.4671 5.11897 33.208 4.85983C32.9486 4.60043 32.5281 4.60043 32.2687 4.85983L31.8293 5.29899L26.7249 0.194549C26.4657 -0.0645902 26.0452 -0.0645902 25.7858 0.194549C25.5264 0.453947 25.5264 0.874433 25.7858 1.13383L30.89 6.23828L27.3215 9.80682L25.4932 7.97858C25.2341 7.71918 24.8136 7.71918 24.5542 7.97858C24.2948 8.23798 24.2948 8.65846 24.5542 8.91786L26.3822 10.7458L22.8136 14.3146L15.8644 7.3651L19.4329 3.7963L21.0238 5.38719C21.1532 5.51689 21.3234 5.58174 21.4933 5.58174C21.6632 5.58174 21.8331 5.51689 21.9628 5.38719C22.2222 5.12779 22.2222 4.70731 21.9628 4.44791L20.3722 2.85728L22.0956 1.13357C22.355 0.874433 22.355 0.453947 22.0956 0.194549C21.8362 -0.0648496 21.4157 -0.0648496 21.1566 0.194549L19.4329 1.91799L19.1818 1.6669C18.9224 1.4075 18.5019 1.4075 18.2425 1.6669C17.9834 1.92629 17.9834 2.34678 18.2425 2.60618L18.4939 2.85728L14.6955 6.65565C14.5832 6.68392 14.4768 6.74125 14.3892 6.82893C14.3012 6.91686 14.2439 7.02296 14.2156 7.13528L14.1445 7.20661V4.91405H14.543C14.9098 4.91405 15.207 4.61678 15.207 4.24999C15.207 3.88346 14.9098 3.58593 14.543 3.58593H14.1445V0.66406C14.1445 0.29753 13.8473 0 13.4805 0C13.1137 0 12.8164 0.29753 12.8164 0.66406V3.58593H2.98833V0.66406C2.98833 0.29753 2.69106 0 2.32427 0C1.95748 0 1.66021 0.29753 1.66021 0.66406V3.58593H1.26178C0.894988 3.58593 0.597717 3.88346 0.597717 4.24999C0.597717 4.61678 0.894988 4.91405 1.26178 4.91405H1.66021V9.9609H1.26178C0.894988 9.9609 0.597717 10.2584 0.597717 10.625C0.597717 10.9918 0.894988 11.289 1.26178 11.289H1.66021V16.3359H1.26178C0.894988 16.3359 0.597717 16.6334 0.597717 16.9999C0.597717 17.3667 0.894988 17.664 1.26178 17.664H1.66021V22.7109H1.26178C0.894988 22.7109 0.597717 23.0084 0.597717 23.3749C0.597717 23.7417 0.894988 24.039 1.26178 24.039H1.66021V29.0858H1.26178C0.894988 29.0858 0.597717 29.3834 0.597717 29.7499C0.597717 30.1167 0.894988 30.414 1.26178 30.414H1.66021V33.3358C1.66021 33.7026 1.95748 33.9999 2.32427 33.9999C2.69106 33.9999 2.98833 33.7026 2.98833 33.3358V31.4228C2.98833 31.0858 2.99456 30.7496 3.00701 30.414H12.8164V33.3358C12.8164 33.7026 13.1137 33.9999 13.4805 33.9999C13.8473 33.9999 14.1445 33.7026 14.1445 33.3358V31.4228C14.1445 31.0848 14.1562 30.7486 14.1772 30.414H14.543C14.9098 30.414 15.207 30.1167 15.207 29.7499C15.207 29.3834 14.9098 29.0858 14.543 29.0858H14.3147C14.7741 25.9619 16.1528 23.0634 18.3167 20.7114L18.6184 21.0131C18.7481 21.1425 18.918 21.2074 19.0879 21.2074C19.2578 21.2074 19.4277 21.1425 19.5574 21.0131C19.8168 20.7537 19.8168 20.3332 19.5574 20.0738L19.2451 19.7615L22.8139 16.193L23.126 16.505C23.2557 16.6347 23.4258 16.6996 23.5957 16.6996C23.7656 16.6996 23.9355 16.6347 24.0652 16.505C24.3246 16.2459 24.3246 15.8254 24.0652 15.566L23.7529 15.2537L27.3215 11.6849L27.6338 11.9972C27.7635 12.1269 27.9334 12.1917 28.1033 12.1917C28.2735 12.1917 28.4434 12.1269 28.5731 11.9972C28.8322 11.738 28.8322 11.3176 28.5731 11.0582L28.2608 10.7458L31.8293 7.17704L32.1416 7.48935C32.2713 7.61905 32.4412 7.6839 32.6111 7.6839C32.781 7.6839 32.9512 7.61905 33.0806 7.48935C33.34 7.23022 33.34 6.80973 33.0806 6.55033L32.7686 6.23828ZM2.98833 4.91405H12.8164V8.53473L11.39 9.9609H2.98833V4.91405ZM12.8164 22.7109H4.43241C4.61814 22.1669 4.82176 21.6271 5.04329 21.0922C5.53589 19.9029 6.10864 18.7594 6.75688 17.664H12.8164V22.7109ZM12.8164 16.3359H7.59577C8.55944 14.9063 9.66084 13.5686 10.8951 12.3341L11.9402 11.289H12.8164V16.3359ZM2.98833 11.289H10.0619L9.95604 11.3951C8.44945 12.9017 7.13145 14.5543 6.01085 16.3359H2.98833V11.289ZM2.98833 17.664H5.22668C4.70426 18.6056 4.23267 19.5789 3.81633 20.5841C3.52581 21.2852 3.26485 21.9947 3.03269 22.7109H2.98833V17.664ZM3.08872 29.0858C3.23606 27.3743 3.5463 25.6882 4.01659 24.039H12.8164V29.0858H3.08872ZM14.1445 24.7798V16.5393L17.3769 19.7716C15.9982 21.2606 14.9108 22.9531 14.1445 24.7798ZM18.3061 18.8225L14.1521 14.6685C14.1497 14.6661 14.1469 14.6641 14.1445 14.6617V11.289H14.543C14.9098 11.289 15.207 10.9918 15.207 10.625C15.207 10.2584 14.9098 9.9609 14.543 9.9609H14.1445V9.08466L14.9251 8.30413L21.8746 15.2537L18.3061 18.8225Z" fill="#FFE4A6"/>
<path d="M23.2435 7.37262C23.4147 7.37262 23.5859 7.30699 23.7156 7.17573L23.7187 7.17262C23.9766 6.91192 23.9729 6.49299 23.712 6.23515C23.4515 5.97705 23.0295 5.98094 22.7714 6.24163C22.5136 6.50233 22.5159 6.92282 22.7766 7.18066C22.906 7.3088 23.0749 7.37262 23.2435 7.37262Z" fill="#FFE4A6"/>
</g>
<defs>
<clipPath id="clip0">
<rect width="34" height="34" fill="white"/>
</clipPath>
</defs>
</svg>
