<svg width="31" height="31" viewBox="0 0 31 31" fill="none" xmlns="http://www.w3.org/2000/svg">
<path d="M10.6362 22.0355C10.4763 22.0355 10.3207 22.0996 10.2081 22.2129C10.0949 22.3255 10.0308 22.4816 10.0308 22.641C10.0308 22.8002 10.0949 22.9563 10.2081 23.0691C10.3207 23.1817 10.4768 23.2465 10.6362 23.2465C10.7954 23.2465 10.9515 23.1817 11.0641 23.0691C11.1769 22.9563 11.2417 22.8002 11.2417 22.641C11.2417 22.4811 11.1769 22.3255 11.0641 22.2129C10.9515 22.0996 10.7954 22.0355 10.6362 22.0355Z" fill="#FFA3AE"/>
<path d="M19.4639 3.02734C19.4639 2.69292 19.1926 2.42188 18.8584 2.42188C18.524 2.42188 18.2529 2.69292 18.2529 3.02734V6.90234C18.2529 7.23677 18.524 7.50781 18.8584 7.50781C19.1926 7.50781 19.4639 7.23677 19.4639 6.90234V3.02734Z" fill="#FFA3AE"/>
<path d="M25.1006 7.50788C25.435 7.50788 25.7061 7.23684 25.7061 6.90242V5.18771L26.9406 7.21721C27.0525 7.40098 27.2505 7.50812 27.4579 7.50812C27.5121 7.50812 27.5672 7.50079 27.6213 7.48542C27.8827 7.41233 28.0634 7.17393 28.0634 6.90242V3.02742C28.0634 2.69299 27.7923 2.42195 27.4579 2.42195C27.1235 2.42195 26.8524 2.69299 26.8524 3.02742V4.74212L25.6178 2.71262C25.4766 2.48084 25.1985 2.3711 24.9372 2.44442C24.6758 2.5175 24.4951 2.7559 24.4951 3.02742V6.90242C24.4951 7.23684 24.7662 7.50788 25.1006 7.50788Z" fill="#FFA3AE"/>
<path d="M12.5647 2.83364C12.4814 2.58767 12.2506 2.42188 11.9909 2.42188C11.7312 2.42188 11.5004 2.58743 11.4171 2.83364L10.1087 6.70864C10.0016 7.02533 10.1716 7.36898 10.4886 7.47612C10.8053 7.58279 11.1489 7.41297 11.256 7.09605L11.335 6.86214H12.6467L12.7257 7.09605C12.8111 7.34864 13.0467 7.50805 13.2993 7.50805C13.3636 7.50805 13.4289 7.49788 13.4932 7.47612C13.8099 7.36922 13.9799 7.02557 13.873 6.70864L12.5647 2.83364ZM11.744 5.65096L11.9909 4.91967L12.2378 5.65096H11.744Z" fill="#FFA3AE"/>
<path d="M9.23959 2.42188H7.10815C6.77396 2.42188 6.50269 2.69292 6.50269 3.02734C6.50269 3.36177 6.77396 3.63281 7.10815 3.63281H7.56841V6.90234C7.56841 7.23677 7.83945 7.50781 8.17387 7.50781C8.5083 7.50781 8.77934 7.23677 8.77934 6.90234V3.63281H9.23959C9.57378 3.63281 9.84506 3.36177 9.84506 3.02734C9.84506 2.69292 9.57378 2.42188 9.23959 2.42188Z" fill="#FFA3AE"/>
<path d="M16.9691 2.42188H14.8379C14.5035 2.42188 14.2324 2.69292 14.2324 3.02734C14.2324 3.36177 14.5035 3.63281 14.8379 3.63281H15.2981V6.90234C15.2981 7.23677 15.5692 7.50781 15.9036 7.50781C16.238 7.50781 16.5091 7.23677 16.5091 6.90234V3.63281H16.9691C17.3035 3.63281 17.5746 3.36177 17.5746 3.02734C17.5746 2.69292 17.3035 2.42188 16.9691 2.42188Z" fill="#FFA3AE"/>
<path d="M22.0691 7.50781C23.0542 7.50781 23.8555 6.70651 23.8555 5.72144V4.20824C23.8555 3.22318 23.0542 2.42188 22.0691 2.42188C21.0843 2.42188 20.283 3.22318 20.283 4.20824V5.72144C20.283 6.70651 21.0843 7.50781 22.0691 7.50781ZM21.4939 4.20824C21.4939 3.89085 21.7519 3.63281 22.0691 3.63281C22.3865 3.63281 22.6445 3.89085 22.6445 4.20824V5.72144C22.6445 6.03884 22.3865 6.29688 22.0691 6.29688C21.7519 6.29688 21.4939 6.03884 21.4939 5.72144V4.20824Z" fill="#FFA3AE"/>
<path d="M4.87398 4.35938H4.479C4.27868 4.35938 4.11572 4.19642 4.11572 3.99609C4.11572 3.79577 4.27868 3.63281 4.479 3.63281H5.18877C5.5232 3.63281 5.79424 3.36177 5.79424 3.02734C5.79424 2.69292 5.5232 2.42188 5.18877 2.42188H4.479C3.61101 2.42188 2.90479 3.1281 2.90479 3.99609C2.90479 4.86409 3.61101 5.57031 4.479 5.57031H4.87398C5.0743 5.57031 5.23726 5.73327 5.23726 5.93359C5.23726 6.13392 5.0743 6.29688 4.87398 6.29688H3.83262C3.49819 6.29688 3.22715 6.56792 3.22715 6.90234C3.22715 7.23677 3.49819 7.50781 3.83262 7.50781H4.87398C5.74197 7.50781 6.4482 6.80159 6.4482 5.93359C6.4482 5.0656 5.74197 4.35938 4.87398 4.35938Z" fill="#FFA3AE"/>
<path d="M30.3945 9.92969C30.729 9.92969 31 9.65865 31 9.32422V0.605469C31 0.271042 30.729 0 30.3945 0H0.605469C0.271042 0 0 0.271042 0 0.605469V9.32422C0 9.65865 0.271042 9.92969 0.605469 9.92969H2.05859V22.0353H0.605469C0.271042 22.0353 0 22.3063 0 22.6407V26.0314C0 26.3658 0.271042 26.6368 0.605469 26.6368H2.78516V29.7891H0.605469C0.271042 29.7891 0 30.0601 0 30.3945C0 30.729 0.271042 31 0.605469 31H30.3945C30.729 31 31 30.729 31 30.3945C31 30.0601 30.729 29.7891 30.3945 29.7891H28.2148V26.6368H30.3945C30.729 26.6368 31 26.3658 31 26.0314V22.6407C31 22.3063 30.729 22.0353 30.3945 22.0353H28.9414V9.92969H30.3945ZM3.26953 9.92969H4.48047V22.0353H3.26953V9.92969ZM3.99609 26.6368H7.62891V29.7891H3.99609V26.6368ZM22.1602 26.6368V29.7891H18.5273V26.6368H22.1602ZM17.3164 29.7891H13.6836V26.6368H17.3164V29.7891ZM12.4727 29.7891H8.83984V26.6368H12.4727V29.7891ZM27.0039 29.7891H23.3711V26.6368H27.0039V29.7891ZM29.7891 25.4259H1.21094V23.2462H8.23438C8.5688 23.2462 8.83984 22.9752 8.83984 22.6407C8.83984 22.3063 8.5688 22.0353 8.23438 22.0353H5.69141V9.92969H18.8585C19.1926 9.92969 19.4639 9.65865 19.4639 9.32422C19.4639 8.98979 19.1926 8.71875 18.8585 8.71875H1.21094V1.21094H29.7891V8.71875H23.916C23.5816 8.71875 23.3105 8.98979 23.3105 9.32422C23.3105 9.65865 23.5816 9.92969 23.916 9.92969H25.3086V22.0353H13.0781C12.7437 22.0353 12.4727 22.3063 12.4727 22.6407C12.4727 22.9752 12.7437 23.2462 13.0781 23.2462H29.7891V25.4259ZM27.7305 22.0353H26.5195V9.92969H27.7305V22.0353Z" fill="#FFA3AE"/>
<path d="M21.353 8.71875C21.1931 8.71875 21.0375 8.78355 20.9249 8.89613C20.8117 9.00871 20.7476 9.16505 20.7476 9.32422C20.7476 9.48339 20.8117 9.63972 20.9249 9.7523C21.0375 9.86488 21.1931 9.92969 21.353 9.92969C21.5122 9.92969 21.6683 9.86488 21.7809 9.7523C21.8937 9.63972 21.9585 9.48339 21.9585 9.32422C21.9585 9.16505 21.8937 9.00871 21.7809 8.89613C21.6683 8.78355 21.5122 8.71875 21.353 8.71875Z" fill="#FFA3AE"/>
</svg>
